,
.   http://www.scenetime.com/signup.php  ---&gt;  Hottest scene tracker on the net !!!  

    Join Now   http://www.scenetime.com/signup.php

    seed back for speed


 



...................................NFO:.................................................Paranormal.Activity.3.TS.XviD-EMBER 
http://www.imdb.com/title/tt1778304/

Plot:
In 1988, young sisters Katie and Kristi befriend an invisible entity who resides in their home.

Video Source                     : TNZ Thanks
Audio Source                     : MiSTERE Thanks

General
Format                           : AVI
Format/Info                      : Audio Video Interleave
File size                        : 695 MiB
Duration                         : 1h 18mn
Overall bit rate                 : 1 235 Kbps
Writing application              : VirtualDubMod 1.5.10.2 (build 2540/release)
Writing library                  : VirtualDubMod build 2540/release

Video
ID                               : 0
Format                           : MPEG-4 Visual
Format profile                   : Advanced Simple@L5
Format settings, BVOP            : 2
Format settings, QPel            : No
Format settings, GMC             : No warppoints
Format settings, Matrix          : Default (H.263)
Muxing mode                      : Packed bitstream
Codec ID                         : XVID
Codec ID/Hint                    : XviD
Duration                         : 1h 18mn
Bit rate                         : 1 097 Kbps
Width                            : 656 pixels
Height                           : 288 pixels
Display aspect ratio             : 2.25:1
Frame rate                       : 25.000 fps
Color space                      : YUV
Chroma subsampling               : 4:2:0
Bit depth                        : 8 bits
Scan type                        : Progressive
Compression mode                 : Lossy
Bits/(Pixel*Frame)               : 0.232
Stream size                      : 618 MiB (89%)
Writing library                  : XviD 64

Audio
ID                               : 1
Format                           : MPEG Audio
Format version                   : Version 1
Format profile                   : Layer 3
Mode                             : Joint stereo
Mode extension                   : MS Stereo
Codec ID                         : 55
Codec ID/Hint                    : MP3
Duration                         : 1h 18mn
Bit rate mode                    : Constant
Bit rate                         : 128 Kbps
Channel(s)                       : 2 channels
Sampling rate                    : 44.1 KHz
Compression mode                 : Lossy
Stream size                      : 72.1 MiB (10%)
Alignment                        : Split accross interleaves
Interleave, duration             : 40 ms (1.00 video frame)
Interleave, preload duration     : 500 ms
Writing library                  : LAME3.98r
Encoding settings                : -m j -V 4 -q 2 -lowpass 17 -b 128

Notes
Cropped the slight black border on the left and also cropped what looks like top of a chair at bottom left of the video, wasnt much
changed RGB levels alot, added saturation, HQ smoother, heavy denoiser and sharpened

Greetz to

SHiRK, SHK, LKRG, UnKnOwN, IMAGiNE, SiC, BHRG, TaRiQ786, FLAWL3SS, Rx

SAMURAi, ViSUALiSE, RemixHD, iNSANE, DTRG. Hive, ILLUMINATI, U.S.M

MiSTERE

And to all other groups past and present

Got something to offer?

then you should know where to find us